<?xml version="1.0" encoding="UTF-8"?>
<svg version="1.1" xmlns="http://www.w3.org/2000/svg" width="1500" height="1500">
<path d="M0 0 C0.84997334 -0.00297112 1.69994669 -0.00594224 2.5756768 -0.0090034 C5.42276548 -0.01767233 8.26981202 -0.01919713 11.11691284 -0.02069092 C13.15889068 -0.02532043 15.20086766 -0.03034527 17.24284363 -0.03573608 C22.79062954 -0.04885065 28.33840335 -0.05530339 33.88620234 -0.05974674 C37.35427036 -0.06267943 40.82233509 -0.06678465 44.29040146 -0.07125092 C55.14692708 -0.08492435 66.00344516 -0.09459134 76.8599788 -0.09845281 C89.38117848 -0.10293109 101.90226887 -0.12046904 114.42343533 -0.1494534 C124.10855587 -0.17109238 133.79364571 -0.1811583 143.47879016 -0.18249393 C149.25995199 -0.18354051 155.04101105 -0.18941695 160.82214737 -0.20731354 C166.26404614 -0.22383212 171.70576532 -0.22593129 177.14768028 -0.21717453 C179.13941492 -0.21640614 181.13115937 -0.22072057 183.12286949 -0.23063278 C197.1854621 -0.2964853 209.9789111 0.06651922 221.53829956 9.14044189 C229.9848217 17.87822342 233.69137897 26.76280342 233.67874146 38.76109314 C233.68319814 40.07976552 233.68319814 40.07976552 233.68774486 41.42507774 C233.69643007 44.37667682 233.69793996 47.32823534 233.69943237 50.27984619 C233.70406071 52.39388618 233.70908539 54.50792533 233.71447754 56.6219635 C233.72760291 62.37008118 233.73404689 68.11818718 233.7384882 73.86631751 C233.74141898 77.45781915 233.74552382 81.0493176 233.74999237 84.64081764 C233.76366827 95.87857285 233.77333422 107.11632076 233.77719426 118.35408372 C233.781674 131.32470583 233.79921768 144.29522252 233.82819486 157.26581258 C233.8498167 167.29228007 233.85989883 177.31871791 233.86123538 187.34520847 C233.86228313 193.33311789 233.86818465 199.32092822 233.88605499 205.3088131 C233.90254404 210.94357288 233.90468703 216.57815917 233.89591599 222.21293449 C233.89514604 224.27807327 233.89948274 226.34322141 233.90937424 228.40833664 C233.92211219 231.23405407 233.91620677 234.05915873 233.90579224 236.88487244 C233.91787684 238.10212361 233.91787684 238.10212361 233.93020558 239.34396571 C233.83813726 250.07200984 229.59268942 258.18417733 222.53829956 266.14044189 C210.62984816 276.67735319 196.91965757 276.72381804 181.91134644 276.65802002 C179.82907117 276.66344705 177.74679974 276.67057296 175.66453552 276.67926025 C170.03436602 276.69742731 164.40449115 276.69045337 158.77431679 276.67774391 C152.86844747 276.66758193 146.96260254 276.67701846 141.05673218 276.68328857 C131.14087417 276.69055566 121.22513552 276.68100187 111.30929565 276.66192627 C99.86266943 276.64015943 88.41632824 276.64721146 76.96970892 276.66923189 C67.12308747 276.68741259 57.27655158 276.68993114 47.42991877 276.67947721 C41.55717964 276.67325699 35.68457428 276.67236617 29.81184387 276.68562317 C24.28934901 276.69721987 18.76721989 276.68908607 13.24476433 276.66604614 C11.22400964 276.66077945 9.2032239 276.66223766 7.18248177 276.6710968 C-5.78605968 276.722689 -16.70553333 276.33561683 -27.46170044 268.14044189 C-28.66632935 267.25292236 -28.66632935 267.25292236 -29.89529419 266.34747314 C-32.59313679 264.02741063 -34.25877523 261.8313815 -36.14920044 258.82794189 C-36.73056763 257.92430908 -37.31193481 257.02067627 -37.91091919 256.08966064 C-41.18968638 249.85422178 -41.75435791 244.04216603 -41.72239685 237.1590271 C-41.7262224 236.27734891 -41.73004794 235.39567072 -41.73398942 234.487275 C-41.74427457 231.54494245 -41.74033579 228.60280667 -41.73635864 225.66046143 C-41.7407076 223.54597799 -41.74589137 221.43149613 -41.75184631 219.3170166 C-41.76522791 213.58145477 -41.76581589 207.84595886 -41.76328301 202.11038446 C-41.76221271 197.3191633 -41.76709822 192.52795544 -41.77188843 187.73673713 C-41.78298078 176.43167936 -41.78342259 165.12665482 -41.77737427 153.82159424 C-41.77133422 142.1660242 -41.78364696 130.51057486 -41.80494434 118.85502541 C-41.82256783 108.84123056 -41.8285605 98.8274741 -41.82530659 88.81366432 C-41.82349475 82.83586779 -41.82612011 76.85815737 -41.84002113 70.88037491 C-41.8526069 65.25787605 -41.85064813 59.63556517 -41.83761024 54.01306915 C-41.83524654 51.95276958 -41.83797173 49.89245675 -41.84623337 47.83217239 C-41.85671993 45.01317268 -41.84858475 42.19480152 -41.83592224 39.37582397 C-41.84329653 38.56636955 -41.85067081 37.75691513 -41.85826856 36.92293179 C-41.75752803 26.21476635 -37.5207143 18.07260903 -30.46170044 10.14044189 C-21.57150243 2.50478402 -11.50989181 -0.012606 0 0 Z " fill="#E6EAF5" transform="translate(166.46170043945313,611.8595581054688)"/>
<path d="M0 0 C19.47 0 38.94 0 59 0 C59.33 16.17 59.66 32.34 60 49 C62.68125 43.328125 65.3625 37.65625 68.125 31.8125 C68.95789551 30.05139893 69.79079102 28.29029785 70.64892578 26.47583008 C71.33110079 25.03208559 72.01323236 23.58832057 72.6953125 22.14453125 C73.03167725 21.43373413 73.36804199 20.72293701 73.71459961 19.99060059 C76.85252441 13.34590719 79.92015884 6.67298918 83 0 C102.47 0 121.94 0 142 0 C131.79551133 21.54280941 131.79551133 21.54280941 128.1484375 28.5546875 C127.35218504 30.11032945 126.55662893 31.66632799 125.76171875 33.22265625 C124.55468858 35.58056409 123.34334254 37.93583803 122.12060547 40.28564453 C120.9087076 42.61898599 119.71467129 44.96074468 118.5234375 47.3046875 C117.96745377 48.35775589 117.96745377 48.35775589 117.40023804 49.43209839 C115.96225511 52.29176473 114.97835441 54.45359773 115.10644531 57.68701172 C116.09783025 60.25323602 117.27423354 62.39454935 118.7734375 64.703125 C119.34562012 65.59273926 119.91780273 66.48235352 120.50732422 67.39892578 C121.12365723 68.33978027 121.73999023 69.28063477 122.375 70.25 C123.0055127 71.22565918 123.63602539 72.20131836 124.28564453 73.20654297 C125.57251449 75.19616939 126.86271028 77.18364871 128.15625 79.16894531 C129.81044369 81.7089387 131.45490551 84.25477486 133.09375 86.8046875 C137.84852996 94.19492266 142.66339131 101.53163423 147.63671875 108.77734375 C149 111 149 111 149 113 C95.88467258 117.52599333 95.88467258 117.52599333 85.84472656 110.70458984 C79.82894184 105.26326719 77.46358902 97.24398644 75.23095703 89.68310547 C73.24084009 83.72854297 69.91592817 78.70641061 66.5625 73.4375 C65.49385561 71.6489595 64.43191309 69.85638533 63.37890625 68.05859375 C62.9413501 67.31923584 62.50379395 66.57987793 62.05297852 65.81811523 C61.32877292 64.5676726 60.64623224 63.29246448 60 62 C59.67 78.83 59.34 95.66 59 113 C39.53 113 20.06 113 0 113 C0 75.71 0 38.42 0 0 Z " fill="#010C1C" transform="translate(1222,693)"/>
<path d="M0 0 C16.17 0 32.34 0 49 0 C59.84601874 11.93062061 59.84601874 11.93062061 64.6875 18.08984375 C68.18668797 22.49338267 71.78283113 26.81636951 75.37402344 31.14501953 C81.34106393 38.36085396 87.14729979 45.68412474 93 53 C93.33 35.51 93.66 18.02 94 0 C97.96 0 101.92 0 106 0 C106 37.29 106 74.58 106 113 C92.47 113 78.94 113 65 113 C61.04 107.72 57.08 102.44 53 97 C50.85957372 94.18290767 48.71728041 91.36845032 46.5625 88.5625 C45.47003077 87.13673508 44.37758351 85.71095333 43.28515625 84.28515625 C42.74262207 83.57762207 42.20008789 82.87008789 41.64111328 82.14111328 C38.38979107 77.89920673 35.14509762 73.65222732 31.89941406 69.40600586 C29.05684983 65.68777632 26.21182761 61.97146171 23.36328125 58.2578125 C22.76902344 57.48244141 22.17476562 56.70707031 21.5625 55.90820312 C20.42133405 54.41933818 19.27944145 52.93102983 18.13671875 51.44335938 C17.62367187 50.77369141 17.110625 50.10402344 16.58203125 49.4140625 C16.13061768 48.8257666 15.6792041 48.2374707 15.21411133 47.63134766 C14.09220466 46.12389132 13.0423493 44.56352395 12 43 C11.67 66.1 11.34 89.2 11 113 C7.37 113 3.74 113 0 113 C0 75.71 0 38.42 0 0 Z " fill="#010C1C" transform="translate(1109,693)"/>
<path d="M0 0 C39.27 0 78.54 0 119 0 C119 3.3 119 6.6 119 10 C99.2 10 79.4 10 59 10 C59 23.53 59 37.06 59 51 C68.57 51 78.14 51 88 51 C88 54.3 88 57.6 88 61 C78.43 61 68.86 61 59 61 C59 78.16 59 95.32 59 113 C39.53 113 20.06 113 0 113 C0 75.71 0 38.42 0 0 Z " fill="#010C1C" transform="translate(643,693)"/>
<path d="M0 0 C47.19 0 94.38 0 143 0 C143 3.3 143 6.6 143 10 C129.14 10 115.28 10 101 10 C101 43.99 101 77.98 101 113 C81.86 113 62.72 113 43 113 C43 79.01 43 45.02 43 10 C28.81 10 14.62 10 0 10 C0 6.7 0 3.4 0 0 Z " fill="#010C1C" transform="translate(769,693)"/>
<path d="M0 0 C19.14 0 38.28 0 58 0 C58 33.99 58 67.98 58 103 C78.46 103 98.92 103 120 103 C120 106.3 120 109.6 120 113 C80.4 113 40.8 113 0 113 C0 75.71 0 38.42 0 0 Z " fill="#010C1C" transform="translate(919,693)"/>
<path d="M0 0 C19.14 0 38.28 0 58 0 C58 33.99 58 67.98 58 103 C78.46 103 98.92 103 120 103 C120 106.3 120 109.6 120 113 C80.4 113 40.8 113 0 113 C0 75.71 0 38.42 0 0 Z " fill="#010C1C" transform="translate(454,693)"/>
<path d="M0 0 C18.15 0 36.3 0 55 0 C55 37.29 55 74.58 55 113 C36.85 113 18.7 113 0 113 C0 75.71 0 38.42 0 0 Z " fill="#010C1C" transform="translate(581,693)"/>
<path d="M0 0 C17.82 0 35.64 0 54 0 C54 37.29 54 74.58 54 113 C36.18 113 18.36 113 0 113 C0 75.71 0 38.42 0 0 Z " fill="#010C1C" transform="translate(1047,693)"/>
</svg>
